<svg width="1000" height="1000" viewBox="0 0 1000 1000" fill="none" xmlns="http://www.w3.org/2000/svg">
<rect width="1000" height="1000" fill="#FF7E37"/>
<path d="M743.821 261.937C716.142 261.937 695.287 276.16 683.912 297.21L554.045 541.092V326.036C554.045 288.297 525.987 261.937 489.776 261.937C462.475 261.937 442.19 275.212 430.814 297.21L302.275 534.075V269.902H193.832V732.632H298.294L449.015 459.356V670.809C449.015 708.927 475.746 740.408 511.768 740.408C537.551 740.408 560.302 726.185 572.625 704.186C606.94 642.362 702.302 457.839 702.302 457.839V732.822H806.764V331.536C806.574 293.607 780.032 261.937 743.821 261.937Z" fill="white"/>
</svg>
