<?xml version="1.0" encoding="UTF-8"?> <svg xmlns="http://www.w3.org/2000/svg" viewBox="0 0 551.46 175.83"> <defs> <style>.cls-1{fill:#ebecec;}</style> </defs> <g id="Слой_2" data-name="Слой 2"> <g id="Слой_1-2" data-name="Слой 1"> <path class="cls-1" d="M157,49.19a1.56,1.56,0,0,0-.56-.95c-.54-.4-.91-.12-1.51.1l-2.55.94c-.28.1-3.07,1.27-3.1.75-.1-1.75,2-2.81,3.35-3.17,1.78-.47,3.72-.3,5.54-.52a22.62,22.62,0,0,0,9-2.9c2.13-1.32.07-3.72-1.74-3.81s-5.48,3.48-6.5.67a4.22,4.22,0,0,0-3.73-3.12c-2-.26-3.87,1.1-5,2.61-.33.47-.62,1-.9,1.44s-.46.56-.92.39c-.09-.28-.11-.59-.17-.87a2.42,2.42,0,0,0-1.76-1.59,15.62,15.62,0,0,0-7.25-.51c-2.2.32-4.86.93-6.57,2.45a1.88,1.88,0,0,0,.49,3.13c.84.44,2.7.45,3.46,1.21-1.72.71-1.84,3.1-1.94,4.81s-1,2.9-2.81,2.3c-1.33-.45-2.48-1.37-3.81-1.86a6.61,6.61,0,0,0-4.23.24c-1.75.55-3.45,1.3-5.19,1.88s-3.27,1-4.93,1.45a18.63,18.63,0,0,1-5.48.92c-1.59-.08-3.35-1.51-2.6-3.22.53-1.23,2.13-1.89,3.26-2.41,1.94-.88,4.52-2.41,4.26-4.93s-4-2.56-5.82-2.1a7.91,7.91,0,0,0-3.27,1.8c-1.21,1-1.69,2.57-3.35,3-1.4.37-3.21.09-4.36,1.15a6.45,6.45,0,0,0-1.21,2.23c-.46.93-2.56.32-3.36.33-1.89.05-3.49,1.43-4.89,2.53a19,19,0,0,1-6.47,3.21C76.67,58,72,58.47,69.06,61.42,67.57,62.91,68,65,66.86,66.64a4.42,4.42,0,0,1-4.94,1.56,5.25,5.25,0,0,1,1.19-1.26.58.58,0,0,0,.09-.69c-1.94-4-8.51-.2-10.89,1.23-4.08,2.45-7.67,5.65-11.65,8.27-3.64,2.4-7.42,4.62-11.23,6.75a60.25,60.25,0,0,1-7.54,3.87,3.85,3.85,0,0,0-1.75,1.12c-.94.85-1.77,1.81-2.66,2.71a10.14,10.14,0,0,1-3.19,2.49c-.61.23-1.35,0-2,.25a4,4,0,0,0-1.19.81A14.22,14.22,0,0,0,9.4,96a4.1,4.1,0,0,1-1,1.09c-.7.48-1.37,0-2.11,0a2.47,2.47,0,0,0-2.12,1.42c-.37.59-.63,1.12-1.36,1.31s-1.33,0-1.89.35c-2.07,1.23-.14,3.78,1.81,3.47,1.43-.24,2.75-1.4,4.25-1,1.77.46-.6,2.78-.84,3.56a3.08,3.08,0,0,0,3.11,4.09,3.27,3.27,0,0,0,2.37-1.42,9.52,9.52,0,0,0,.7-1.82,2.1,2.1,0,0,1,1.81-1c2.07-.24,5.08.67,6.56-1.33.85-1.15,1.39-2.56,2.13-3.79a30.18,30.18,0,0,1,2.93-4A32.24,32.24,0,0,1,42.13,87c3-.79,6.38-.7,9.19-2.09,1.43-.71,2.46-1.89,4-2.37a14.74,14.74,0,0,1,5.38-.09c1.74.13,3.47.28,5.21.44,1.58.14,3.35.11,4.8.85s1.25,2.53,2,3.7a11.67,11.67,0,0,0,3,2.85,8.78,8.78,0,0,0,3.62,1.81c1.73.34,3.37-.63,5.09-.39,2.29.32,4.88,2.83,7,.52a3.84,3.84,0,0,0,.44-.69c.37-.63.88-.6,1.47-.61H96c1.77,0,4.18-.45,5.64.76a4.89,4.89,0,0,0,2.77,1.36c1.21.14,2.43,0,3.64.08a2.07,2.07,0,0,1,1.6.84c.33.47.39,1.1.78,1.55.55.65,1.22.56,2,.44a22.27,22.27,0,0,0,2.89-.74,15.08,15.08,0,0,1,3.67-.48c2.61-.08,4.9-.09,7.36-1.14,2.24-1,4.71-1.92,7.18-1.68,1.86.17,3.38,1.31,5.3,1.24,1.36.09,4.15-.25,4.72-1.78,0-.14,0-.75.06-.81a2.25,2.25,0,0,0,.72-.9c.34-.87-.85-1.72-1.59-1.71-1.33,0-2.29,1.07-3.64,1.1a4,4,0,0,1-3.4-2c-.53-.92-.2-2.27-1.19-2.93a2.11,2.11,0,0,0-2.55.06c-.43.41-.32.62-.27,1.2a4,4,0,0,1-.52,2.14,5.21,5.21,0,0,1-4.1,2.66c-3.19.39-6.56-1.68-8.19-4.33s-.62-6.88,2.91-7.12c1.47-.09,2.88.4,4.34,0a3.17,3.17,0,0,0,2.24-2.08,2.33,2.33,0,0,0,0-1.2c-.21-1.08,1.46-1.51,2.15-1.73a7.93,7.93,0,0,1,4.82.08c2.29.73,4.55,2.42,7,1.12a.58.58,0,0,0,0-1c-1.48-.89-3.13-1.9-3.3-3.79s1.95-2.14,3-3c2.21-1.79,1-4.67,1.65-7,.41-1.44,1.92-2.35,3.13-3.06,1.61-.95,3.26-1.83,4.89-2.73s5.9-2.52,5.37-5.09"></path> <path class="cls-1" d="M61.68,60.77a1.09,1.09,0,0,0-.41-2.11,5.78,5.78,0,0,0-2.41,1c-.84.49-2.22.19-2.91,1-1.08,1.21-.08,2.47,1.33,2.59a3.71,3.71,0,0,0,1.27-.28,5,5,0,0,1,1.83-.27c.8,0,.75-.61,1.09-1.09a.55.55,0,0,0,.09-.23.55.55,0,0,0,.1-.26,2.83,2.83,0,0,1,0-.29"></path> <path class="cls-1" d="M70.8,59.48a16.2,16.2,0,0,1,3.33-2.15,23.17,23.17,0,0,1,3.68-1,12.45,12.45,0,0,0,3.24-1.23,25.58,25.58,0,0,0,3.14-1.46,2.86,2.86,0,0,0,.6-4.27c-1.39-1.62-3.7.29-4.77,1.28-.44.4-.88,1.24-1.52,1.31s-1-.16-1.55-.06a5.44,5.44,0,0,0-2.64,1.55,9.16,9.16,0,0,1-1.51,1.27,7.28,7.28,0,0,1-1.85.53c-1.15.27-1.86,1.25-3,1.55-.58.15-1.59.59-1.53,1.36a1.15,1.15,0,0,0,.84,1.17c.56,1.43,2.52.84,3.5.12"></path> <path class="cls-1" d="M92.34,47.68c.4-.16,1-.32,1.24-.74a2,2,0,0,1,.73-.48,1.73,1.73,0,0,0,.77-.53,1.75,1.75,0,0,0,0-1.9,1.93,1.93,0,0,0-1.6-1.14,4.64,4.64,0,0,0-2.18,1c-1.18.72-2.45,2.43-1,3.55a2,2,0,0,0,2,.29"></path> <path class="cls-1" d="M135.54,31.71c-2.25,0-5.11.05-6.76,1.83s1.5,2.77,2.82,2.81a11.36,11.36,0,0,0,3.53-.83,6.84,6.84,0,0,1,2.15-.33c.77,0,1.36.44,2.14.36a.88.88,0,0,1,.9,1.23.57.57,0,0,0,.4.7c1.68.39,4.94,1.28,6.19-.36.47-.6.76-1.14,1.61-1.18a11.39,11.39,0,0,1,1.63.3,1.89,1.89,0,0,0,1.91-.83c.43-.65-.05-1.65-.5-2.15a4.35,4.35,0,0,0-2.73-1.35,3.48,3.48,0,0,1-1.94-.82,12.9,12.9,0,0,0-1.13-.95,4.65,4.65,0,0,0-3.22-.62,6.29,6.29,0,0,0-2.78,1.29c-1.37,1-2.62.9-4.22.9"></path> <path class="cls-1" d="M121.84,32.32c-.51-.87-1.29-.89-2.21-.94-2.49-.13-3.84,1.75-5.47,3.34-.65.63-1.59,1.27-1.5,2.28.07.77.9,1,1.54,1a6.47,6.47,0,0,0,3.32-.88,3.34,3.34,0,0,1,2.06-.6c.48.07.94.15,1.42.19h.16a5.33,5.33,0,0,0,1.82-.19.57.57,0,0,0,.4-.7,16.58,16.58,0,0,0-1.54-3.54"></path> <path class="cls-1" d="M142.58,19.22c-.74.13-1.79.48-2,1.33a2.21,2.21,0,0,0,1.33,2.55,5.4,5.4,0,0,0,3.5-.15,27.71,27.71,0,0,0,4.18-1.65c2.88-1.3,5.81-2.61,9-1.56,1.38.46,2.65,1.25,4,1.8a9.25,9.25,0,0,0,4.78.4c1.55-.19,3.46-.37,4.47,1.08.82,1.17.68,2.81,1.5,4,1.28,1.94,3.83,2.5,6,2.7a30.59,30.59,0,0,0,4.49,0A10.77,10.77,0,0,0,188.1,29c1-.53,1.11-1.92,1.35-2.9.4-1.63,2.57-2.72,3.91-3.49a40,40,0,0,1,8.86-3.33,71.91,71.91,0,0,0,8.82-3,61.66,61.66,0,0,0,8.94-5,41.08,41.08,0,0,0,3.74-2.55,3.07,3.07,0,0,0,1.4-3c-.35-2.37-4.17-2.26-5.84-2.35a186,186,0,0,0-21.64-.25,77.11,77.11,0,0,0-12.91,1.86c-4.42,1-8.67,2.7-13.08,3.74s-9.14,1.16-13.58,2.56c-4.19,1.33-8.16,3.24-12.47,4.21h0a1.21,1.21,0,0,0-1.57.84,2.56,2.56,0,0,0,.07,1.5c.31,1.16-.72,1.12-1.5,1.25"></path> <path class="cls-1" d="M229.61,17.52a26.12,26.12,0,0,0-6.36.46,24.27,24.27,0,0,1-3.61.27,7.79,7.79,0,0,0-3,.3.58.58,0,0,0-.14,1,7,7,0,0,0,3.91,1c1.85.12,3.7.15,5.55.12H226a.3.3,0,0,0,.13,0c.86,0,1.71-.15,2.57-.18a3,3,0,0,0,2-.52,1.63,1.63,0,0,0,.56-1.53c-.27-.82-.79-.91-1.62-1"></path> <path class="cls-1" d="M545.47,99.08a85.24,85.24,0,0,1-6.35-6.68c-1.59-1.89-2.8-4-4.83-5.44-3.87-2.78-8.86-4-13.27-5.68a54.81,54.81,0,0,1-7.37-3.22,35.28,35.28,0,0,1-6.16-4.8A85.82,85.82,0,0,0,492.11,62c-5.82-3.19-12.37-4.77-18.12-8.12-2.9-1.7-5.11-4.11-7.76-6.12s-5.92-2.65-9.26-3.44C450.38,42.74,445.19,38,439.29,35a88.72,88.72,0,0,0-10.19-4.08c-3.61-1.35-7.19-2.75-10.83-4a43.36,43.36,0,0,0-10.65-2.34c-3.77-.29-7.57.9-11.28-.07-2.81-.74-5.42-2.36-8.35-2.66a6.16,6.16,0,0,0-3.39.47c-.33.16-1.06.41-1.13.84-.16.88-.31,1.75-.46,2.63a5.52,5.52,0,0,1-3.74-.19c.31-.48.92-.88,1.13-1.43.4-1.07-.54-1.9-1.31-2.46a4.2,4.2,0,0,0-3-.49,13.73,13.73,0,0,1-4.24.27c-7.53-1.1-15.06-2.29-22.6-3.3a41.07,41.07,0,0,0-5.54-.42c-1.74,0-3.47.4-5.19,0-1.39-.35-2.42-1.62-3.91-1.72-1.68-.12-3.16.74-4.74,1.22-6.92,2.08-14.24-1.15-20.13-4.62a19.1,19.1,0,0,0-3.57-2.21,18.53,18.53,0,0,0-5.05-1,37.46,37.46,0,0,0-10.34.8,67,67,0,0,0-10.14,2.79,7.77,7.77,0,0,0-3.17,1.86c-.43.47-.76,1-1.18,1.5a3.07,3.07,0,0,1-2.68.74c-2.11-.15-4.82-.88-6.16,1.37-1.2,2,1.63,4.52,3.27,5.19a2.31,2.31,0,0,0,2.58-.82c.32-.39.56-.84.84-1.26.74-1.08,1.9-.69,2.81-.09,1.17.77,1.86,2,3.17,2.6a3.41,3.41,0,0,0,2.86-.08c2.2-1.07,3.42-3.39,5.51-4.61,1.35-.8,2.87-1.09,4.16-2s2.37-2.23,3.92-2.77a3.46,3.46,0,0,1,2-.06c.33.09,1.1.53.87,1a2,2,0,0,1-1,.76c-1,.43-2.2.18-3.14.92a1.75,1.75,0,0,0-.55,2.18,3,3,0,0,0,2.79,1.34,13.75,13.75,0,0,0,4-1.17c1.17-.38,3.66-.26,3.75,1.44.08,1.46-2.31,1.25-3.18,1.19a17.09,17.09,0,0,0-4,.06c-2.88.47-5.51,1.95-8.22,2.94a14.76,14.76,0,0,1-4.23,1,22.35,22.35,0,0,1-5.74-.82,22,22,0,0,0-17.2,3.76,7.43,7.43,0,0,1-2.05,1.16,6.29,6.29,0,0,1-1.89.08A3.43,3.43,0,0,0,256,31c-.81.86-.27,2.08,0,3,.68,2.18-2.42,2.82-3.86,2.84-2.27,0-5.71-.37-6.79,2.3s1.51,4.6,3.84,4.91a21.66,21.66,0,0,0,4.62-.16,14.46,14.46,0,0,0,4.63-.67c1.06-.47,1.38-1.85,2-2.74.76-1.16,2.28-1.61,3.55-1.94,1.1-.29,2.22-.48,3.31-.78,1.26-.34,2.34-1,3.55-1.46,1.58-.56,3.16.92,4.38,1.72l3.27,2.13-1.32.92a.58.58,0,0,0,0,1,7.14,7.14,0,0,0,9-1.27.57.57,0,0,0,.09-.69,8.43,8.43,0,0,0-3.86-3,15.6,15.6,0,0,0-2.79-.61c-.79-.15-2.36-1.12-1.64-2l6.95,1.59a6.24,6.24,0,0,1,2.8,1.08c.77.65.85,2,1.15,2.86a3.32,3.32,0,0,0,3.53,2.2,7.87,7.87,0,0,0,2.67-.77,8.52,8.52,0,0,1,3.74-.84c1.73.05,3.32,0,4.5-1.43,1-1.25,1.27-3.15,2.61-4.12s3.06.37,4.15,1.19a7.88,7.88,0,0,0,4.06,1.93c.4,0,.6-.39.55-.72a4.25,4.25,0,0,1,.15-2,3.39,3.39,0,0,1,3.72,3c0,.28.24.61.56.57,1.92-.25,5.2-.44,5.13,2.3,0,1.6-1.68,1.1-2.71.83l-4.1-1.1c-4.51-1.2-9.45-2.47-13.95-.58-1.51.63-2.78,1.93-1.69,3.56,1.28,1.92,3.91.87,5.66.45a20.14,20.14,0,0,1,4-.5,8.27,8.27,0,0,1,3.92.46c1.75.89-.93,2.76-1.61,3.26l-3.53,2.6a.58.58,0,0,0-.2.78c1.25,2,3.75,1.74,5.56,2.87,1.21.75,1.27,2.54,1.67,3.75a5.08,5.08,0,0,0,2.09,2.55,11.52,11.52,0,0,1,2.92,2.14c.83,1.11.48,2.77.88,4,.85,2.73,4.86,2.17,7,2.12a58.56,58.56,0,0,0,10.46-1.23c1.69-.35,3.37-.8,5-1.3A3.17,3.17,0,0,0,348,63.94c.49-2.4-3.94-2.29-5.26-2.31a6.8,6.8,0,0,1-3.67-.74,5.93,5.93,0,0,1-1.44-2,4.6,4.6,0,0,0-1.49-1.35,5.5,5.5,0,0,1-2.21-1.9,3,3,0,0,1,.18-2.87c2.1.16,3.49,2.33,4.9,3.68a7.36,7.36,0,0,0,2.65,1.67c1.45.52,3.08.3,4.56.67,1.31.34,2.35,1.33,3.68,1.68s3,0,4.5,0a10.45,10.45,0,0,1,7.5,3.76,4.19,4.19,0,0,0,1.48,3.58,4.24,4.24,0,0,0,3.55.91c.17,0,1.81-.11,1.62.14a5.92,5.92,0,0,0-.9,2.17,38,38,0,0,0-.49,4,41.56,41.56,0,0,0-.82,4.54,2.73,2.73,0,0,0,1.47,3,6.58,6.58,0,0,0,6.33-1.12c.87-.87.55-2.13.8-3.21.34-1.44,1.87-2.28,3.16-2.69,3.15-1,6.5.59,9.71.06,1.67-.28,3.26-.9,5-1.06,1.17-.1,4.59-.22,4.14,1.73-.23,1-1.07,1.79-1.31,2.81a2,2,0,0,0,1.24,2.24c1.15.55,3.54,0,3.14,2a2.39,2.39,0,0,0,1.22,2.5c1,.68,2.31.72,3.38,1.26a1.3,1.3,0,0,1,.73,1.92,2.65,2.65,0,0,0,0,1.82c1,3.13,6,2.4,8.34,1.93.95-.19,3.16-.69,2.67-2.18s-2.48-2.23-3.45-3.57c-2.44-3.36,3.33-5.18,5.25-2.67a8,8,0,0,0,1.8,2,3.67,3.67,0,0,0,3.2.06c3.36-1.09,6.94-.31,10.4-.34a8.91,8.91,0,0,0,6.92-3.17,4.46,4.46,0,0,0,0-6c-1.07-1.28-1.8-2.24-.77-3.81a3.08,3.08,0,0,1,4-1.07c2.48,1.29,2.69,4.86,3.75,7.13,1,2.07,3,4.19,5.44,4.12,2.61-.08,3-3,3.81-4.87,1.44-3.2,4.35.58,5.72,1.75a5,5,0,0,0,2.88,1.34,19.55,19.55,0,0,0,4.08-.62,63.09,63.09,0,0,1,6.44-.42c1.5-.09,3.45-.08,4.73-1s.53-2.25-.27-3.11a4.64,4.64,0,0,0-2.43-1.08c-1.49-.36-2.33-.82-1.95-2.56A3.54,3.54,0,0,1,479.3,70c1.41,0,2.7,1,3.75,1.86,2.05,1.65,3.82,3.26,6.54,3.59,1.61.2,3.24,0,4.85.28a5.82,5.82,0,0,1,3.43,2.65c1.24,1.71,2.34,3.76,4.55,4.31,2.65.65,5-2.16,7.64-1,1.77.81,2.71,3,3.56,4.6A13.92,13.92,0,0,0,517,91.13c2.25,1.77,5.33.28,7.38,2.28a36.93,36.93,0,0,1,2.37,3,8.87,8.87,0,0,0,3.49,2.39,35.39,35.39,0,0,0,4.66,1.2,43.38,43.38,0,0,1,4.59,1.54,45.41,45.41,0,0,1,6.53,3.3c1,.58,4.53,3.62,5.36,1.53.39-1-.63-2.08-1.23-2.76-1.44-1.62-3.11-3.05-4.68-4.54"></path> <path class="cls-1" d="M448.26,150.07c.51-1.59,0-3.37-.22-5s-.46-3.45-.74-5.17a5.16,5.16,0,0,0-1.86-3.38,4.8,4.8,0,0,0-2.28-1c-1.36-.17-2.58,0-3.7-.94-1.81-1.52-2.6-4-3.75-6a4.1,4.1,0,0,0-1.86-1.73,24.3,24.3,0,0,0-3.09-.7c-1-.31-1.89-1-2.89-1.41a6.46,6.46,0,0,0-3.29-.29,21.4,21.4,0,0,0-3.49,1,13.2,13.2,0,0,1-3.95.62c-2.58,0-5-1.08-7.53-1.32-1.67-.15-3.73.36-4.34,2.13a21.82,21.82,0,0,0-.7,3.4l-.75,4.25s0,0,0,.07l0,.08a6.62,6.62,0,0,0,.48,3.05c.58,1.21,1.89,1.22,3.09,1.44,3.61.67,7.33.08,10.91.83A19,19,0,0,1,427,144.2c2.41,2.23,2.59,5.82,4.27,8.54a8.69,8.69,0,0,0,6.71,4.24c2.91.21,5.83-1.93,7.86-3.77a8.29,8.29,0,0,0,2.47-3.14"></path> <path class="cls-1" d="M458.7,171.65a14.87,14.87,0,0,0-4.89-.45,27.78,27.78,0,0,1-5.84-.43.57.57,0,0,0-.44.08l-.17.06c-.55.31-1.5,1.28-.73,1.93,1,.86,2.75,1,4,1.22a18.34,18.34,0,0,1,4.58,1.38,5,5,0,0,0,4-.06c.77-.26,2.16-.72,2.16-1.73s-1.95-1.75-2.64-2"></path> <path class="cls-1" d="M447.61,127.24a5.08,5.08,0,0,0,.82,1.52,1.54,1.54,0,0,0,2.47.09c.33-.44-.08-1.17-.25-1.57-.36-.82-.74-1.63-1.17-2.41-1.71-3.15-5.05-5.26-7.94-7.25-1-.81-3.13-2.43-4.07-.81a.59.59,0,0,0,.2.78,4.53,4.53,0,0,1,1.52,1.86,2.81,2.81,0,0,0,1.53,1.17c1.83.81.21,3,1,4.43s2,1.42,3.51,1.23a11.38,11.38,0,0,1,1.31-.08c.73,0,.9.44,1.1,1"></path> <path class="cls-1" d="M429.93,158.62l-.05,0-.08,0c-1.27.63-2.54,1.1-1.53,2.68a2.55,2.55,0,0,0,1.73,1c.88.15,1.5-.38,2.31-.58,1-.26,3.15-.58,2.07-2.07a3.71,3.71,0,0,0-4.45-1.11"></path> <path class="cls-1" d="M435.17,95.13c.55-.31,1.17-.81,1.05-1.52s-.73-1.41-1.46-1.34h0a3.13,3.13,0,0,0-2,.32,1.27,1.27,0,0,0-.55.64c-.28.72-.94.73-1.54,1a1.71,1.71,0,0,0-1.12,1.78c.14,1,1.24,1.36,2.07,1.61.62.19,2.1.55,2.62-.06a1.17,1.17,0,0,0,.32-.8,1.27,1.27,0,0,0-.17-.53c-.26-.58.41-.93.77-1.14"></path> <path class="cls-1" d="M431.56,104.86a2.55,2.55,0,0,1,.92.64,1.66,1.66,0,0,0,.84.66,1.52,1.52,0,0,0,1.63-.72c1.1-1.47-1.33-3.52-2.1-4.49l0,0c-.86-.89-2.18,0-2.84.71-1.27,1.45.33,2.7,1.59,3.24"></path> <path class="cls-1" d="M444.53,132.19a.54.54,0,0,0-.16-.22,2.91,2.91,0,0,0-3-.55.58.58,0,0,0-.34.83,7.88,7.88,0,0,0,1.51,2.7,2.92,2.92,0,0,0,2.48.29,1.38,1.38,0,0,0,1.21-1.61c-.2-.72-1.07-1.18-1.73-1.44"></path> <path class="cls-1" d="M509.39,87.21c-.84-.36-1.77-.54-2.6-.94s-1.2-1-2-1.32a7.08,7.08,0,0,0-4.32-.07h-.06l-.15,0-.07,0c-.82.3-1.67.94-1.49,1.91.29,1.5,1.76,2.94,2.72,4.09a3.54,3.54,0,0,0,3.73,1.55c2-.36,3.92-.78,5.88-1.17.74-.15,2-.75,1.68-1.73-.38-1.31-2.2-1.93-3.33-2.42"></path> <path class="cls-1" d="M346.25,15.5a8,8,0,0,1,1.54,1c1.38.89,3.64.11,4.95-.57s1-2.19-.16-2.89c-1.6-1-4.23-.39-6-.31a.62.62,0,0,0-.27.09,14,14,0,0,0-1.57.2.57.57,0,0,0-.42.55,1.76,1.76,0,0,0,.88,1.54,4.09,4.09,0,0,0,1.05.41"></path> <path class="cls-1" d="M276.11,3.65c1,.22,2,.08,2.93.34a22.18,22.18,0,0,1,2.87,1.37c1.78.76,3.35.11,5-.7A7.11,7.11,0,0,1,290,3.89a5.87,5.87,0,0,0,2.65-.55A1.14,1.14,0,0,0,293,1.85,3.11,3.11,0,0,0,290.9.74,24.54,24.54,0,0,0,284.27.5c-2.22.05-4.43-.19-6.64-.36h0c-.84-.12-3.43-.43-3.76.74-.41,1.48,1,2.48,2.25,2.78"></path> <path class="cls-1" d="M254.61,28.29a1.91,1.91,0,0,0,.76,1.14c1.08.69,2.22.35,3.37,0,1.5-.43,3.05-.78,4.51-1.31a1.15,1.15,0,0,0,.51-1.66,2.38,2.38,0,0,0-2.28-1.42.76.76,0,0,0-.16,0c-1-.19-1.63-1.9-2.49-2.45-.52-.34-1-.36-1.41-.92a3.38,3.38,0,0,0-1.15-.94c-2.07-1.13-4.41.13-5.81,1.69-.87,1-1.37,2.58-2.88,2.58a5.11,5.11,0,0,0-3.36,1.14c-1.56,1.17-2.25,3.5,0,4.3a3.87,3.87,0,0,0,2.82-.51c1.19-.56,2.5-.82,3.64-1.48a8.61,8.61,0,0,0,1.23-1,3.74,3.74,0,0,1,2.44-.87c.72,0,.16,1.38.25,1.69"></path> <path class="cls-1" d="M475.45,85.19a4.69,4.69,0,0,0-3.16,1c-.58.37-1.13.8-1.68,1.22s-1.45,1.46-2.38,1.48a13.9,13.9,0,0,1-4.34-.67c-1.4-.45-2.43-1.36-3.92-1.63-2.4-.43-5.28-1.4-7.39.29-.71.57-1.28,1.27-.66,2.13s2.18.54,3.08,1.08a7.3,7.3,0,0,0,3.2,1.21,31.36,31.36,0,0,1,4.64.4,15.65,15.65,0,0,1,3.74,1.89,3.81,3.81,0,0,0,3.49-.1,5.65,5.65,0,0,0,2.66-2.16c.72-1.12,2.24-1.5,3.28-2.26,1.54-1.12,1.76-3.58-.56-3.84"></path> <path class="cls-1" d="M484.13,77.94a11.2,11.2,0,0,0-2.93,2.31,22.12,22.12,0,0,0-3.29,3.2l0,.06c-.49.63-1,1.31-.52,2.09s1.68.74,2.43.45a11.87,11.87,0,0,0,3.32-1.8c1.1-.89,1.72-2.13,2.76-3.06.63-.56,1.43-1.78.84-2.64a2,2,0,0,0-2.58-.61"></path> <path class="cls-1" d="M106.65,32.84c-.59-.85-1.63-.68-2.57-.69H104a6,6,0,0,0-2.93.44,5,5,0,0,0-1.1,1,15.32,15.32,0,0,1-1.34,1.07c-.48.45-1,1.25-.62,1.93a2,2,0,0,0,2.06.86,3,3,0,0,0,1.24-.42,6,6,0,0,1,1.84-.62,7.21,7.21,0,0,0,2.78-1.74c.49-.38,1.21-1.2.74-1.88"></path> <path class="cls-1" d="M103.38,38.13a1.71,1.71,0,0,0-.95.44c-.23.23-.35.5-.54.71-1.6.73-3.14,1.27-2.75,3.32.34,1.77,3.23.36,4-.13a11.11,11.11,0,0,0,2.13-2.2.92.92,0,0,0,0-1.33,2.24,2.24,0,0,0-1.91-.81"></path> <path class="cls-1" d="M429.8,29.59a7.06,7.06,0,0,0,3.09,1.13,3.8,3.8,0,0,1,2,.54c.4.33.75.72,1.14,1.06l0,0,0,0,.06,0,0,0a5.93,5.93,0,0,0,1.72,1,.57.57,0,0,0,.7-.4,16.81,16.81,0,0,0,.72-3.38,2.22,2.22,0,0,0-1.17-2.33c-2-1.58-4.19-.83-6.52-.44-.92.15-2,.14-2.51,1-.36.63.24,1.38.73,1.71"></path> <path class="cls-1" d="M416,24.84a8.5,8.5,0,0,1,2.07.45,8.69,8.69,0,0,0,3.24-.26,1.38,1.38,0,0,0,1.26-1.49c-.07-.82-1.34-1.28-1.93-1.64h0a6,6,0,0,0-2.76-1.08,4.81,4.81,0,0,0-1.49.38c-.56.18-1.13.13-1.69.26s-1.49.59-1.5,1.36.63,1.38,1.37,1.77a3.12,3.12,0,0,0,1.45.26"></path> <path class="cls-1" d="M375.79,17.85l0,0c1.66.36,3.34.92,4.24-.92.76-1.56-1.87-2.22-2.85-2.34a9.68,9.68,0,0,0-3.07.36c-.65.13-1.19.32-1.16,1.07a2.35,2.35,0,0,0,1,1.87c.65.38,1.2,0,1.76-.06"></path> <path class="cls-1" d="M138.78,15.41Q121.25,21,104.2,27.93a3.13,3.13,0,0,1,.24,1.51,2,2,0,0,0,2.11.78c1.59-.37,1.85-.62,3.2.65a18.91,18.91,0,0,0,1.68,1.67c1.19.87,1.95.34,2.72-.75s3-.66,4.21-.71a6.59,6.59,0,0,0,3.86-1.74c1.16-.92,2.26-1.91,3.49-2.73a8.49,8.49,0,0,1,4.86-1.33,5.58,5.58,0,0,0,3.37-1.34c1.24-1,2.38-2,3.71-2.88.71-.46,5.62-3.82,3.1-4.75l-.1,0a2.81,2.81,0,0,1-1.87-.87"></path> <path class="cls-1" d="M212.33,88.61c-3.21-.8-6.9-.27-10.11.24-2.81.45-6.19,1.64-8.87.13-1.27-.72-1.76-2.28-2.74-3.29a6.3,6.3,0,0,0-3.44-1.59,24,24,0,0,0-4.07-.25l-5.84-.07a102.74,102.74,0,0,0-11.1.13c-4.95.48-10.12,2.67-12.25,7.42a.56.56,0,0,0-.17.25c-.34,1,.42,1.56,1.19,2a4.28,4.28,0,0,1,1.68,1.59c.65,1.06.14,2-.58,2.79a4.52,4.52,0,0,0-.06,5.64,4.35,4.35,0,0,0,2.6,1.61,4.51,4.51,0,0,1,2.19.8,7.45,7.45,0,0,1,1.29,2c1.43,2.44,4,2.57,6.57,2.34,2.37-.21,6.49-.31,6,3.2a13.61,13.61,0,0,0-.5,3.53c.18,1.4,1.56,2,2,3.3a12,12,0,0,1,.24,4.93c-.17,1.83-1.08,3.5-1.25,5.29-.24,2.53,1.67,4,3.3,5.6a5.51,5.51,0,0,1,1.69,3.74,7.4,7.4,0,0,0,1,4c1.71,2.39,5.06,2.19,7.62,1.89.88-.11.77-1.2.45-1.76a2.43,2.43,0,0,0-1.21-.82c-.95-.43-1-1.52-1-2.43a22.2,22.2,0,0,1,2.15-10.35,42.74,42.74,0,0,1,6.21-8.4,15.07,15.07,0,0,1,3.82-3,10.67,10.67,0,0,0,3.26-3.19,11.37,11.37,0,0,0,2-3.81,7.28,7.28,0,0,1,.56-2,4.66,4.66,0,0,1,1.62-1.53c1.59-1,5.09-1.86,5.19-4.2a10.68,10.68,0,0,0-.88-3.49,2.87,2.87,0,0,1,1.18-3.13c1.43-1.26,3.27-2,4-3.93,1-2.54-1.63-4.54-3.76-5.07"></path> <path class="cls-1" d="M329.15,71.83c-1.75-.18-3.32.75-5-.07-1.55-.74-2.75-2.42-3.75-3.76-2-2.68-3.77-5.51-5.91-8.09-1.06-1.26-2.18-2.47-3.34-3.63a6.67,6.67,0,0,1-1.63-2,15.49,15.49,0,0,0-.65-2.07c-1.21-2.2-4.26-2.49-6.46-2.4a13.68,13.68,0,0,1-5.18-.32c-1.49-.51-2.67-1.31-4.32-1.12s-3.17.88-4.82,1.07a34.69,34.69,0,0,1-5.49.06c-.87,0-2.06.1-2.14-1.06a1.89,1.89,0,0,0-.41-1.16,3.17,3.17,0,0,0-2.43-.68c-.79,0-1.3,0-1.26-1a2.31,2.31,0,0,0-.37-1.43c-.63-1-2-1.27-3.06-1.45-3.05-.51-6.16.15-9.13.83a34.83,34.83,0,0,1-9.83,1.27,8.33,8.33,0,0,0-3.75.36,5.37,5.37,0,0,0-2.59,2.7,6.4,6.4,0,0,1-2.79,3.21,12.61,12.61,0,0,0-3.54,2.43,17.65,17.65,0,0,0-2.37,3.13,14.6,14.6,0,0,0-2,4c-.28,1.11.44,2,1.14,2.73,1.22,1.29.3,2.79.92,4.25.54,1.27,1.93,2,3,2.71,1.54,1.07,3.08,2.15,4.63,3.21a12.28,12.28,0,0,0,4.19,2,6.94,6.94,0,0,0,3.2-.22,43.14,43.14,0,0,1,6-1.34.59.59,0,0,0,.19,0h.11c2.3-.11,4.61-.1,6.9-.1q1.83,0,3.66,0c1,0,3-.25,3.84.41s-.34,3.15-.47,4a4.55,4.55,0,0,0,.93,3.31c1.63,2.35,4.58,3.43,5.65,6.22A2.56,2.56,0,0,1,280.7,90c-.32.61-1,1-1.39,1.51a3.79,3.79,0,0,0-.3,3.73c.53,1.45,1.67,2.56,2.2,4s.29,3.12,1,4.61a10.05,10.05,0,0,0,2.35,2.73,8.58,8.58,0,0,1,1.33,1.56,10.3,10.3,0,0,1,.81,2.5c.68,2.19,3,3.08,5.11,3.12,5.49.09,9.16-5.69,13.49-8.18a7.92,7.92,0,0,0,2.64-2c1-1.36.33-2.71.67-4.21.24-1,1.65-1.31,2.52-1.51a15.17,15.17,0,0,0,3.1-.86c2.21-1,2.27-3.35,1.89-5.41a16.82,16.82,0,0,1-.52-3.93,4.9,4.9,0,0,1,2.1-3.36c1-.8,2.08-1.43,3.1-2.15a24.07,24.07,0,0,0,3.09-2.88c2.1-2.09,5.56-1.51,7.73-3.5,1.91-1.77-.73-3.84-2.45-4"></path> <path class="cls-1" d="M326.55,95a4.31,4.31,0,0,0-1.61,1c-.87.72-1.66.53-2.7.4-1.56-.18-2.21,1.16-2.08,2.5.07.67.82,2.86-.16,3.1-.78.2-1.76.18-2.36.78-1.08,1.08,0,2.29,1,2.9a.49.49,0,0,0,.22.23,3.55,3.55,0,0,0,4.05-.75,17.89,17.89,0,0,0,1.92-2.23,5.2,5.2,0,0,0,1.17-2.07c.44-1.58,2.83-1.75,2.87-3.55,0-1.22-.94-2.67-2.35-2.29"></path> <path class="cls-1" d="M421.24,102.67c-1.3.07-2.58.36-3.87.46a32.78,32.78,0,0,1-4.32,0h0c-1.62-.15-2.88-1.5-4.57-1.09s-1.6,2.13-.29,2.91a10.52,10.52,0,0,0,2.92,1.1c.8.19,1.07.28,1.05,1.18a3.42,3.42,0,0,0,.24,1.34c.71,1.89,2.84,2.47,4.65,2.59a4.07,4.07,0,0,0,2.47-.47c.79-.47.92-1.51,1.12-2.31.5-2,3.69-1,4.31-3,.23-.72-.36-1.52-.84-2a3.87,3.87,0,0,0-2.87-.75"></path> <path class="cls-1" d="M374.64,83.11s0,0-.06.07l-.11,0a2.56,2.56,0,0,0-1,.73.6.6,0,0,0,0,.81,2.67,2.67,0,0,0,1.67,1c.75.08,1.27-.63,1.61-1.17a1.4,1.4,0,0,0-.12-1.84c-.64-.56-1.46,0-2,.41"></path> <path class="cls-1" d="M409.76,115.14a4.79,4.79,0,0,0,3.83.81.58.58,0,0,0,.25-1,30.28,30.28,0,0,1-4.76-5.65,17.52,17.52,0,0,1-1.59-3.22c-.38-1-.49-2.25-1.26-3a11,11,0,0,0-2.17-1.53,7.21,7.21,0,0,1-2.25-2.92c-1-1.81-2.07-3.7-4.21-4.24a1.4,1.4,0,0,0-1.81.91c-.48,1.4-1.39,2.14-.94,3.71.37,1.3,1.73,1.72,2.8,2.26,1.45.73.17,3.06.85,4.29s2.32,2.06,3.48,2.88c1.58,1.12,3.21,2.19,4.73,3.39,1.19.94,1.82,2.42,3.05,3.31"></path> <path class="cls-1" d="M403,87.73c-.39-.55-.87-1.52-1.67-1.52s-1.12.62-1.26,1.27a6.48,6.48,0,0,0,0,1.46,9.47,9.47,0,0,0,.08,1.77c.23,1,1.19,1.59,1.86,2.23a2.77,2.77,0,0,0,2.26.86c.44,0,1.23-.36,1.16-.94a5.38,5.38,0,0,0-1.53-2.47c-.38-.49-.69-.8-.61-1.45a2,2,0,0,0-.31-1.21"></path> <path class="cls-1" d="M424.42,112.5a1.9,1.9,0,0,1,.87,1.06,1.48,1.48,0,0,0,.56.7,1.19,1.19,0,0,0,1.56-.46,2,2,0,0,0,.12-2,4.29,4.29,0,0,1-.61-1.32,1.17,1.17,0,0,0-.11-.28c0-.56,0-1.24-.62-1.46A3,3,0,0,0,424,109c-1.32.68-.64,2.88.38,3.52"></path> <path class="cls-1" d="M172.86,43.78a37.25,37.25,0,0,0-3.81,0,.52.52,0,0,0-.25.07h0c-.68.33-2.69,1.47-1.41,2.4a3.37,3.37,0,0,0,2.09.29c1,0,1.9.49,3,.48,1.36,0,3-.87,2.12-2.42a2.08,2.08,0,0,0-1.66-.81"></path> <path class="cls-1" d="M145.06,77.66a1.91,1.91,0,0,0-1.9.16c-.84.48-1.71.84-2.58,1.25a.45.45,0,0,0-.21.17c-.64.47-1.05,1.19,0,1.69.66.34,1.62-.18,2.3-.21a5.32,5.32,0,0,0,2.38-.25,1.56,1.56,0,0,0,.05-2.81"></path> <path class="cls-1" d="M121.19,41.11c-.61.11-1.66.1-2,.65a1.56,1.56,0,0,0-.27.78c-.08.58-.59.7-.85,1.14a1,1,0,0,0,.39,1.44,1.71,1.71,0,0,0,1.79-.28,5.68,5.68,0,0,1,2.67-.56,1.67,1.67,0,0,0,1.35-1.41c.24-1.67-1.82-2.2-3-1.76"></path> </g> </g> </svg> 